# xmcd CD database file
#
# Track frame offsets:
#	150
#	19208
#	44475
#	68720
#	87458
#	103740
#
# Disc length: 1763 seconds
#
# Revision: 0
# Processed by: cddbd v1.5.2PL0 Copyright (c) Steve Scherf et al.
# Submitted via: CDex 1.51
#
DISCID=4d06e106
DTITLE=Mike Shean - Fantasies Unlimited
DYEAR=1994
DGENRE=New Age
TTITLE0=Carillion
TTITLE1=Silent
TTITLE2=Temporal
TTITLE3=Adventure
TTITLE4=Phantasia
TTITLE5=Miving
EXTD=YEAR: 1994
EXTT0=
EXTT1=
EXTT2=
EXTT3=
EXTT4=
EXTT5=
PLAYORDER=
